<?xml version="1.0" standalone="no"?><!DOCTYPE svg PUBLIC "-//W3C//DTD SVG 1.1//EN" "http://www.w3.org/Graphics/SVG/1.1/DTD/svg11.dtd"><svg t="1574419140661" class="icon" viewBox="0 0 1024 1024" version="1.1" xmlns="http://www.w3.org/2000/svg" p-id="2766" xmlns:xlink="http://www.w3.org/1999/xlink" width="200" height="200"><defs><style type="text/css"></style></defs><path d="M715.423 566.613c44.489-48.821 71.532-113.751 71.532-184.97 0-151.737-123.038-274.776-274.878-274.776-151.838 0-274.773 123.038-274.773 274.776 0 71.219 27.042 136.148 71.532 184.97-121.183 70.189-202.623 201.282-202.623 351.363v0.621h50.785v-0.621c0-47.894 9.39-94.445 27.868-138.211 17.963-42.322 43.458-80.202 76.073-112.923 26.012-26.012 55.432-47.484 87.635-64.308 45.625 33.855 102.191 53.881 163.503 53.881 61.208 0 117.777-20.024 163.502-53.881 32.308 16.722 61.623 38.19 87.741 64.308 32.617 32.617 58.214 70.6 76.073 112.923 18.473 43.766 27.869 90.217 27.869 138.211v0.621h50.785v-0.621c-0.106-150.082-81.547-281.068-202.624-351.363v0 0zM512.078 605.735c-30.243 0-59.663-5.883-87.222-17.55-26.628-11.251-50.68-27.455-71.325-47.994-20.644-20.645-36.744-44.591-47.999-71.325-11.663-27.561-17.545-56.879-17.545-87.222 0-30.246 5.883-59.662 17.545-87.221 11.255-26.633 27.46-50.685 47.999-71.327 20.645-20.644 44.591-36.747 71.325-47.998 27.56-11.663 56.874-17.548 87.222-17.548 30.246 0 59.662 5.886 87.221 17.548 26.632 11.251 50.681 27.455 71.325 47.998 20.645 20.642 36.75 44.592 47.999 71.327 11.663 27.56 17.551 56.874 17.551 87.221 0 30.243-5.887 59.662-17.551 87.222-11.249 26.628-27.454 50.68-47.999 71.325-20.644 20.639-44.591 36.744-71.325 47.994-27.56 11.667-56.975 17.55-87.221 17.55v0 0zM512.078 605.735z" p-id="2767" fill="#dbdbdb"></path></svg>