<?xml version="1.0" standalone="no"?><!DOCTYPE svg PUBLIC "-//W3C//DTD SVG 1.1//EN" "http://www.w3.org/Graphics/SVG/1.1/DTD/svg11.dtd"><svg t="1574418275570" class="icon" viewBox="0 0 1024 1024" version="1.1" xmlns="http://www.w3.org/2000/svg" p-id="2185" xmlns:xlink="http://www.w3.org/1999/xlink" width="200" height="200"><defs><style type="text/css"></style></defs><path d="M435.2 883.2c-234.666667 0-426.666667-192-426.666667-426.666667s192-426.666667 426.666667-426.666666 426.666667 192 426.666667 426.666666-192 426.666667-426.666667 426.666667z m0-810.666667c-213.333333 0-384 170.666667-384 384s170.666667 384 384 384 384-170.666667 384-384c0-209.066667-170.666667-384-384-384zM925.866667 1024c-17.066667 0-34.133333-8.533333-46.933334-17.066667L682.666667 806.4c-8.533333-8.533333-8.533333-21.333333 0-29.866667 8.533333-8.533333 21.333333-8.533333 29.866666 0l196.266667 196.266667c8.533333 8.533333 21.333333 8.533333 29.866667 0 8.533333-8.533333 8.533333-21.333333 0-29.866667l-157.866667-157.866666c-8.533333-8.533333-8.533333-21.333333 0-29.866667 8.533333-8.533333 21.333333-8.533333 29.866667 0l157.866666 157.866667c12.8 12.8 17.066667 29.866667 17.066667 46.933333s-8.533333 34.133333-17.066667 46.933333c-8.533333 8.533333-25.6 17.066667-42.666666 17.066667z" fill="#515151" p-id="2186"></path></svg>